<?xml version="1.0" encoding="utf-8"?>
<svg xmlns="http://www.w3.org/2000/svg" viewBox="0 0 32 32" width="512" height="512">
  <path d="M16 7C13.351563 7 11.050781 8.238281 9.40625 10.0625C9.269531 10.046875 9.148438 10 9 10C6.800781 10 5 11.800781 5 14C3.269531 15.054688 2 16.835938 2 19C2 22.300781 4.699219 25 8 25L24 25C27.300781 25 30 22.300781 30 19C30 15.84375 27.511719 13.316406 24.40625 13.09375C23.183594 9.574219 19.925781 7 16 7 Z M 16 9C19.277344 9 22.011719 11.253906 22.78125 14.28125L22.96875 15.0625L23.8125 15.03125C24.023438 15.019531 24.070313 15 24 15C26.21875 15 28 16.78125 28 19C28 21.21875 26.21875 23 24 23L8 23C5.78125 23 4 21.21875 4 19C4 17.339844 5.007813 15.921875 6.4375 15.3125L7.125 15.03125L7.03125 14.28125C7.011719 14.117188 7 14.023438 7 14C7 12.882813 7.882813 12 9 12C9.140625 12 9.296875 12.019531 9.46875 12.0625L10.09375 12.21875L10.46875 11.71875C11.75 10.074219 13.75 9 16 9 Z M 19.28125 13.28125L15 17.5625L12.71875 15.28125L11.28125 16.71875L14.28125 19.71875L15 20.40625L15.71875 19.71875L20.71875 14.71875Z" fill="#6C6C67" />
</svg>